<svg xmlns="http://www.w3.org/2000/svg" width="1200" height="360" viewBox="0 0 1200 360" fill="none">
  <rect width="1200" height="360" fill="#08090D"/>

  <g opacity="0.38">
    <path d="M0 40H1200M0 80H1200M0 120H1200M0 160H1200M0 200H1200M0 240H1200M0 280H1200M0 320H1200" stroke="#1B2230" stroke-width="1"/>
    <path d="M40 0V360M80 0V360M120 0V360M160 0V360M200 0V360M240 0V360M280 0V360M320 0V360M360 0V360M400 0V360M440 0V360M480 0V360M520 0V360M560 0V360M600 0V360M640 0V360M680 0V360M720 0V360M760 0V360M800 0V360M840 0V360M880 0V360M920 0V360M960 0V360M1000 0V360M1040 0V360M1080 0V360M1120 0V360M1160 0V360" stroke="#1B2230" stroke-width="1"/>
  </g>

  <g opacity="0.88">
    <rect x="28" y="28" width="44" height="12" fill="#00F5D4"/>
    <rect x="28" y="52" width="92" height="12" fill="#FF2E88"/>
    <rect x="1082" y="292" width="90" height="12" fill="#B6FF00"/>
    <rect x="1128" y="316" width="44" height="12" fill="#00D9FF"/>
    <rect x="1018" y="316" width="72" height="12" fill="#FFB000"/>
  </g>

  <g transform="translate(80 80)" font-family="ui-monospace,SFMono-Regular,Menlo,Monaco,Consolas,monospace">
    <text x="0" y="0" fill="#B6FF00" font-size="13" font-weight="700" letter-spacing="3">AUTHORIZED SECURITY LAB</text>
    <text x="0" y="76" fill="#F5F7FB" font-size="68" font-weight="900" letter-spacing="0">CYBERSPACE</text>
    <text x="4" y="108" fill="#9AA4B2" font-size="18">orchestrated agents · scoped tools · real operator workflows</text>

    <g transform="translate(0 146)">
      <rect x="0" y="0" width="170" height="46" fill="#10131B" stroke="#00F5D4" stroke-width="2"/>
      <text x="18" y="29" fill="#00F5D4" font-size="18" font-weight="800">ORCHESTRATOR</text>
      <rect x="186" y="12" width="46" height="22" fill="#FF2E88"/>
      <rect x="246" y="12" width="46" height="22" fill="#00D9FF"/>
      <rect x="306" y="12" width="46" height="22" fill="#B6FF00"/>
      <text x="375" y="29" fill="#F5F7FB" font-size="16" font-weight="700">DELEGATES, DOES NOT SPRAY</text>
    </g>
  </g>

  <g transform="translate(688 58)" font-family="ui-monospace,SFMono-Regular,Menlo,Monaco,Consolas,monospace">
    <rect x="0" y="0" width="420" height="244" fill="#0E1118" stroke="#313847" stroke-width="2"/>
    <rect x="18" y="18" width="384" height="34" fill="#151A24"/>
    <text x="34" y="41" fill="#F5F7FB" font-size="16" font-weight="800">AGENT ROUTER</text>
    <text x="300" y="41" fill="#FF2E88" font-size="14" font-weight="800">LIVE</text>

    <g transform="translate(24 72)">
      <rect width="112" height="44" fill="#08110F" stroke="#00F5D4"/>
      <text x="14" y="28" fill="#00F5D4" font-size="15" font-weight="800">RECON</text>
    </g>
    <g transform="translate(154 72)">
      <rect width="112" height="44" fill="#13080E" stroke="#FF2E88"/>
      <text x="14" y="28" fill="#FF2E88" font-size="15" font-weight="800">EXPLOIT</text>
    </g>
    <g transform="translate(284 72)">
      <rect width="112" height="44" fill="#0A0C17" stroke="#7C5CFF"/>
      <text x="14" y="28" fill="#9C85FF" font-size="15" font-weight="800">OPSEC</text>
    </g>
    <g transform="translate(24 136)">
      <rect width="112" height="44" fill="#151008" stroke="#FFB000"/>
      <text x="14" y="28" fill="#FFB000" font-size="15" font-weight="800">HARDWARE</text>
    </g>
    <g transform="translate(154 136)">
      <rect width="112" height="44" fill="#071018" stroke="#00D9FF"/>
      <text x="14" y="28" fill="#00D9FF" font-size="15" font-weight="800">ROBO</text>
    </g>
    <g transform="translate(284 136)">
      <rect width="112" height="44" fill="#101016" stroke="#B6FF00"/>
      <text x="14" y="28" fill="#B6FF00" font-size="15" font-weight="800">REPORT</text>
    </g>

    <rect x="24" y="204" width="372" height="16" fill="#151A24"/>
    <rect x="24" y="204" width="108" height="16" fill="#00F5D4"/>
    <rect x="146" y="204" width="72" height="16" fill="#FF2E88"/>
    <rect x="232" y="204" width="132" height="16" fill="#B6FF00"/>
  </g>

  <g opacity="0.55">
    <rect x="642" y="56" width="18" height="18" fill="#FF2E88"/>
    <rect x="616" y="82" width="18" height="18" fill="#00D9FF"/>
    <rect x="584" y="108" width="18" height="18" fill="#B6FF00"/>
    <rect x="620" y="250" width="18" height="18" fill="#FFB000"/>
    <rect x="650" y="276" width="18" height="18" fill="#00F5D4"/>
  </g>
</svg>
