<svg xmlns="http://www.w3.org/2000/svg" width="840" height="260" viewBox="0 0 840 260" fill="none">
  <rect width="840" height="260" fill="#0D1117"/>

  <!-- pixelated CYBERSPACE wordmark. each letter is a 5x7 block grid of squares. -->
  <!-- pixel size = 8px; letter width = 5px(40); gap = 1px(8). starts at x=30 y=70 -->
  <g fill="#39FF14">
    <!-- C  x=30 -->
    <rect x="30" y="70" width="8" height="8"/><rect x="38" y="70" width="8" height="8"/><rect x="46" y="70" width="8" height="8"/>
    <rect x="30" y="78" width="8" height="8"/>
    <rect x="30" y="86" width="8" height="8"/>
    <rect x="30" y="94" width="8" height="8"/>
    <rect x="30" y="102" width="8" height="8"/><rect x="38" y="102" width="8" height="8"/><rect x="46" y="102" width="8" height="8"/>
    <!-- Y  x=78 -->
    <rect x="78" y="70" width="8" height="8"/><rect x="94" y="70" width="8" height="8"/>
    <rect x="86" y="78" width="8" height="8"/>
    <rect x="86" y="86" width="8" height="8"/>
    <rect x="86" y="94" width="8" height="8"/>
    <rect x="86" y="102" width="8" height="8"/>
    <!-- B  x=110 -->
    <rect x="110" y="70" width="8" height="8"/><rect x="118" y="70" width="8" height="8"/><rect x="126" y="70" width="8" height="8"/>
    <rect x="110" y="78" width="8" height="8"/><rect x="134" y="78" width="8" height="8"/>
    <rect x="110" y="86" width="8" height="8"/><rect x="118" y="86" width="8" height="8"/><rect x="126" y="86" width="8" height="8"/>
    <rect x="110" y="94" width="8" height="8"/><rect x="134" y="94" width="8" height="8"/>
    <rect x="110" y="102" width="8" height="8"/><rect x="118" y="102" width="8" height="8"/><rect x="126" y="102" width="8" height="8"/>
    <!-- E  x=150 -->
    <rect x="150" y="70" width="8" height="8"/><rect x="158" y="70" width="8" height="8"/><rect x="166" y="70" width="8" height="8"/><rect x="174" y="70" width="8" height="8"/>
    <rect x="150" y="78" width="8" height="8"/>
    <rect x="150" y="86" width="8" height="8"/><rect x="158" y="86" width="8" height="8"/><rect x="166" y="86" width="8" height="8"/>
    <rect x="150" y="94" width="8" height="8"/>
    <rect x="150" y="102" width="8" height="8"/><rect x="158" y="102" width="8" height="8"/><rect x="166" y="102" width="8" height="8"/><rect x="174" y="102" width="8" height="8"/>
    <!-- R  x=190 -->
    <rect x="190" y="70" width="8" height="8"/><rect x="198" y="70" width="8" height="8"/><rect x="206" y="70" width="8" height="8"/>
    <rect x="190" y="78" width="8" height="8"/><rect x="214" y="78" width="8" height="8"/>
    <rect x="190" y="86" width="8" height="8"/><rect x="198" y="86" width="8" height="8"/><rect x="206" y="86" width="8" height="8"/>
    <rect x="190" y="94" width="8" height="8"/><rect x="214" y="94" width="8" height="8"/>
    <rect x="190" y="102" width="8" height="8"/><rect x="206" y="102" width="8" height="8"/>
    <!-- S  x=230 -->
    <rect x="230" y="70" width="8" height="8"/><rect x="238" y="70" width="8" height="8"/><rect x="246" y="70" width="8" height="8"/><rect x="254" y="70" width="8" height="8"/>
    <rect x="230" y="78" width="8" height="8"/>
    <rect x="230" y="86" width="8" height="8"/><rect x="238" y="86" width="8" height="8"/><rect x="246" y="86" width="8" height="8"/>
    <rect x="254" y="94" width="8" height="8"/>
    <rect x="230" y="102" width="8" height="8"/><rect x="238" y="102" width="8" height="8"/><rect x="246" y="102" width="8" height="8"/><rect x="254" y="102" width="8" height="8"/>
    <!-- P  x=270 -->
    <rect x="270" y="70" width="8" height="8"/><rect x="278" y="70" width="8" height="8"/><rect x="286" y="70" width="8" height="8"/>
    <rect x="270" y="78" width="8" height="8"/><rect x="294" y="78" width="8" height="8"/>
    <rect x="270" y="86" width="8" height="8"/><rect x="278" y="86" width="8" height="8"/><rect x="286" y="86" width="8" height="8"/>
    <rect x="270" y="94" width="8" height="8"/>
    <rect x="270" y="102" width="8" height="8"/>
    <!-- A  x=310 -->
    <rect x="318" y="70" width="8" height="8"/>
    <rect x="310" y="78" width="8" height="8"/><rect x="326" y="78" width="8" height="8"/>
    <rect x="310" y="86" width="8" height="8"/><rect x="318" y="86" width="8" height="8"/><rect x="326" y="86" width="8" height="8"/>
    <rect x="310" y="94" width="8" height="8"/><rect x="326" y="94" width="8" height="8"/>
    <rect x="310" y="102" width="8" height="8"/><rect x="326" y="102" width="8" height="8"/>
    <!-- C  x=350 -->
    <rect x="350" y="70" width="8" height="8"/><rect x="358" y="70" width="8" height="8"/><rect x="366" y="70" width="8" height="8"/>
    <rect x="350" y="78" width="8" height="8"/>
    <rect x="350" y="86" width="8" height="8"/>
    <rect x="350" y="94" width="8" height="8"/>
    <rect x="350" y="102" width="8" height="8"/><rect x="358" y="102" width="8" height="8"/><rect x="366" y="102" width="8" height="8"/>
    <!-- E  x=390 -->
    <rect x="390" y="70" width="8" height="8"/><rect x="398" y="70" width="8" height="8"/><rect x="406" y="70" width="8" height="8"/><rect x="414" y="70" width="8" height="8"/>
    <rect x="390" y="78" width="8" height="8"/>
    <rect x="390" y="86" width="8" height="8"/><rect x="398" y="86" width="8" height="8"/><rect x="406" y="86" width="8" height="8"/>
    <rect x="390" y="94" width="8" height="8"/>
    <rect x="390" y="102" width="8" height="8"/><rect x="398" y="102" width="8" height="8"/><rect x="406" y="102" width="8" height="8"/><rect x="414" y="102" width="8" height="8"/>

    <!-- subtle blink cursor after the word -->
    <rect x="430" y="70" width="8" height="40" opacity="0.5"/>
  </g>
</svg>
