<svg xmlns="http://www.w3.org/2000/svg" width="256" height="256" viewBox="0 0 256 256" fill="none">
  <rect width="256" height="256" rx="56" fill="#0D1117"/>
  <!-- connection lines -->
  <g stroke="#30363D" stroke-width="1.5">
    <line x1="128" y1="128" x2="128" y2="48"/><line x1="128" y1="128" x2="198" y2="88"/>
    <line x1="128" y1="128" x2="208" y2="128"/><line x1="128" y1="128" x2="198" y2="168"/>
    <line x1="128" y1="128" x2="128" y2="208"/><line x1="128" y1="128" x2="58" y2="168"/>
    <line x1="128" y1="128" x2="48" y2="128"/><line x1="128" y1="128" x2="58" y2="88"/>
  </g>
  <!-- sub-agent dots -->
  <g fill="#0D1117" stroke-width="2">
    <circle cx="128" cy="48" r="12" stroke="#00FF9D"/><circle cx="198" cy="88" r="12" stroke="#FF6B6B"/>
    <circle cx="208" cy="128" r="12" stroke="#A855F7"/><circle cx="198" cy="168" r="12" stroke="#FBBF24"/>
    <circle cx="128" cy="208" r="12" stroke="#00D9FF"/><circle cx="58" cy="168" r="12" stroke="#6E7681"/>
    <circle cx="48" cy="128" r="12" stroke="#30363D"/><circle cx="58" cy="88" r="12" stroke="#30363D"/>
  </g>
  <!-- center node -->
  <circle cx="128" cy="128" r="30" fill="#0D1117" stroke="#58A6FF" stroke-width="2"/>
  <circle cx="128" cy="128" r="16" fill="#58A6FF" opacity="0.9"/>
  <text x="128" y="133" text-anchor="middle" fill="#0D1117" font-family="monospace" font-size="13" font-weight="bold">CS</text>
</svg>
