<svg xmlns="http://www.w3.org/2000/svg" width="256" height="256" viewBox="0 0 256 256" fill="none">
  <rect width="256" height="256" fill="#08090D"/>
  <rect x="16" y="16" width="224" height="224" fill="#0E1118" stroke="#313847" stroke-width="4"/>

  <g opacity="0.45">
    <path d="M32 64H224M32 104H224M32 144H224M32 184H224" stroke="#1B2230" stroke-width="2"/>
    <path d="M64 32V224M104 32V224M144 32V224M184 32V224" stroke="#1B2230" stroke-width="2"/>
  </g>

  <rect x="52" y="44" width="28" height="28" fill="#00F5D4"/>
  <rect x="176" y="44" width="28" height="28" fill="#FF2E88"/>
  <rect x="52" y="184" width="28" height="28" fill="#FFB000"/>
  <rect x="176" y="184" width="28" height="28" fill="#B6FF00"/>

  <path d="M80 72H176V92H196V164H176V184H80V164H60V92H80V72Z" fill="#08090D" stroke="#00D9FF" stroke-width="6"/>
  <rect x="92" y="104" width="24" height="24" fill="#B6FF00"/>
  <rect x="140" y="104" width="24" height="24" fill="#FF2E88"/>
  <rect x="104" y="148" width="48" height="12" fill="#F5F7FB"/>
  <rect x="72" y="28" width="112" height="12" fill="#00D9FF"/>
  <rect x="104" y="216" width="48" height="12" fill="#FF2E88"/>

  <text x="128" y="139" text-anchor="middle" fill="#08090D" font-family="ui-monospace,SFMono-Regular,Menlo,Monaco,Consolas,monospace" font-size="18" font-weight="900">CS</text>
</svg>
